#!OML:ASF E:\emotionWalksFemale\Project 1\Capture day 1\Session 1\Female1.ASF
:FULLY-SPECIFIED
:DEGREES
1861
root 11.8103 15.2251 -38.0284 -5.14585 -4.45812 360.914
lowerback 0.473435 -1.96598 -4.34909
upperback -4.9083 -2.78406 -0.112522
thorax -5.15219 -1.19881 2.44841
lowerneck -12.1306 -4.98174 -6.27688
upperneck 23.1498 -9.0192 12.8959
head 10.2721 -3.39042 4.47856
rclavicle 1.82136e-014 1.14301e-014
rhumerus -48.828 13.2607 -88.5021
rradius 44.5144
rwrist 10.3385
rhand -7.34472 -53.0181
rfingers 7.12502
rthumb -161.461 -622.155
lclavicle 1.82136e-014 1.14301e-014
lhumerus -50.7384 15.0696 70.8475
lradius 38.9799
lwrist -8.94495
lhand -2.09802 -34.6321
lfingers 7.12502
lthumb 23.5794 -6.05765
rfemur -3.70519 3.91426 18.7099
rtibia 30.8731
rfoot -24.9781 -23.4875
rtoes -7.77233
lfemur -1.78137 -18.2231 -27.368
ltibia 28.4196
lfoot -34.7551 21.7747
ltoes -23.4859
1862
root 11.8282 15.2245 -38.0349 -5.26149 -4.48948 361.04
lowerback 0.525882 -2.09257 -4.28617
upperback -4.83852 -2.94661 0.00239189
thorax -5.09341 -1.28201 2.53964
lowerneck -12.1074 -4.89368 -6.20191
upperneck 23.4381 -8.8723 12.6067
head 10.3351 -3.34003 4.38863
rclavicle -1.81298e-014 1.32937e-015
rhumerus -48.5689 13.0186 -87.7567
rradius 44.3942
rwrist 10.1107
rhand -8.18801 -49.9967
rfingers 7.12502
rthumb -162.272 -619.209
lclavicle -1.81298e-014 1.32937e-015
lhumerus -50.2707 14.5651 71.4324
lradius 39.5427
lwrist -8.41663
lhand -2.47734 -35.0467
lfingers 7.12502
lthumb 23.2155 -6.42598
rfemur -3.68286 3.89445 18.489
rtibia 30.9854
rfoot -25.1869 -23.5167
rtoes -8.10504
lfemur -1.65527 -18.2091 -27.6143
ltibia 28.3627
lfoot -34.8088 21.7139
ltoes -23.2715
1863
root 11.8358 15.2226 -38.063 -5.37002 -4.23119 361.152
lowerback 1.35063 -2.31459 -4.46585
upperback -5.08933 -3.29311 0.179289
thorax -5.78681 -1.41872 2.88555
lowerneck -11.8576 -4.66391 -6.15128
upperneck 23.5866 -8.53726 12.4418
head 10.2894 -3.20478 4.37387
rclavicle 2.31336e-014 2.09718e-014
rhumerus -48.7424 13.0447 -87.398
rradius 44.6157
rwrist 9.51398
rhand -7.96766 -49.6692
rfingers 7.12502
rthumb -162.06 -618.862
lclavicle 2.31336e-014 2.09718e-014
lhumerus -50.2003 14.0435 71.8784
lradius 40.1505
lwrist -7.92784
lhand -2.38209 -34.5337
lfingers 7.12502
lthumb 23.3069 -5.92452
rfemur -3.67492 3.70081 18.3391
rtibia 31.1067
rfoot -25.2035 -23.6682
rtoes -8.55379
lfemur -1.73002 -17.7695 -27.6258
ltibia 28.3496
lfoot -34.4384 21.0453
ltoes -24.0772
1864
root 11.8493 15.2161 -38.0545 -5.48901 -4.76187 361.273
lowerback 1.17068 -2.31659 -4.34166
upperback -5.01382 -3.2727 0.307994
thorax -5.60355 -1.41765 2.93783
lowerneck -11.7395 -4.4878 -6.08762
upperneck 23.7314 -8.2753 12.2699
head 10.2769 -3.09772 4.34148
rclavicle 1.83876e-015 1.67973e-014
rhumerus -48.679 12.937 -86.914
rradius 44.6798
rwrist 9.25971
rhand -7.64617 -49.9891
rfingers 7.12502
rthumb -161.751 -619.153
lclavicle 1.83876e-015 1.67973e-014
lhumerus -49.9022 13.8839 72.0607
lradius 40.4841
lwrist -7.59048
lhand -2.14182 -34.77
lfingers 7.12502
lthumb 23.5374 -6.1902
rfemur -3.69877 3.86603 18.1455
rtibia 31.2362
rfoot -25.1542 -23.3694
rtoes -9.1635
lfemur -1.5491 -17.4323 -27.8459
ltibia 28.3544
lfoot -34.7565 20.8004
ltoes -23.2166
1865
root 11.8583 15.2114 -38.0512 -5.60449 -5.10394 361.305
lowerback 1.17776 -2.35709 -4.24637
upperback -4.98718 -3.31496 0.466757
thorax -5.57139 -1.44041 3.05137
lowerneck -11.7135 -4.40731 -5.93161
upperneck 24.0145 -8.14453 11.9399
head 10.3368 -3.05302 4.21955
rclavicle -5.81445e-015 -5.96354e-016
rhumerus -48.769 12.8956 -86.561
rradius 44.8199
rwrist 8.65763
rhand -7.84902 -50.3882
rfingers 7.12502
rthumb -161.946 -619.57
lclavicle -5.81445e-015 -5.96354e-016
lhumerus -49.879 13.2889 72.4706
lradius 41.3547
lwrist -6.90919
lhand -2.11568 -34.4978
lfingers 7.12502
lthumb 23.5624 -5.92117
rfemur -3.69513 4.05966 18.0916
rtibia 31.3777
rfoot -25.2525 -23.1855
rtoes -9.07198
lfemur -1.37112 -17.2232 -27.952
ltibia 28.3196
lfoot -34.8561 20.8502
ltoes -23.5268
1866
root 11.8664 15.2069 -38.0486 -5.77278 -5.32326 361.358
lowerback 1.28174 -2.39037 -4.21397
upperback -4.96207 -3.3564 0.594136
thorax -5.5952 -1.45896 3.17237
lowerneck -11.6858 -4.36998 -5.75412
upperneck 24.2926 -8.09265 11.6584
head 10.4058 -3.03791 4.10066
rclavicle -4.96962e-015 -4.96962e-015
rhumerus -48.7772 12.6821 -86.1467
rradius 44.7998
rwrist 8.07197
rhand -8.04345 -50.0927
rfingers 7.12502
rthumb -162.133 -619.292
lclavicle -4.96962e-015 -4.96962e-015
lhumerus -49.7502 12.6664 72.7882
lradius 42.01
lwrist -6.2667
lhand -2.03811 -34.5864
lfingers 7.12502
lthumb 23.6368 -6.01936
rfemur -3.60269 4.22183 18.0236
rtibia 31.5207
rfoot -25.3557 -23.0614
rtoes -8.63065
lfemur -1.10261 -17.2241 -28.1321
ltibia 28.2525
lfoot -34.9945 20.9356
ltoes -23.5873
1867
root 11.8764 15.2035 -38.0468 -5.88469 -5.5285 361.511
lowerback 1.44113 -2.41536 -4.10983
upperback -5.02844 -3.3949 0.588855
thorax -5.75922 -1.47744 3.12135
lowerneck -11.8657 -4.24264 -5.42201
upperneck 24.7284 -7.96766 11.4116
head 10.5627 -2.95965 3.979
rclavicle 4.96962e-015 -6.55989e-015
rhumerus -48.7915 12.2087 -85.7123
rradius 44.5698
rwrist 7.87085
rhand -7.95924 -49.9751
rfingers 7.12502
rthumb -162.052 -619.167
lclavicle 4.96962e-015 -6.55989e-015
lhumerus -49.6822 11.954 72.9713
lradius 42.6256
lwrist -5.60034
lhand -1.83642 -34.0366
lfingers 7.12502
lthumb 23.8303 -5.49474
rfemur -3.53957 4.41273 17.8416
rtibia 31.555
rfoot -25.3115 -22.9969
rtoes -8.43478
lfemur -0.908103 -17.1832 -28.3814
ltibia 28.1539
lfoot -35.1403 20.8219
ltoes -22.9305
1868
root 11.8866 15.1985 -38.0487 -5.93042 -5.77776 361.607
lowerback 1.59497 -2.47628 -4.00487
upperback -5.13038 -3.4768 0.678995
thorax -5.94903 -1.51397 3.17288
lowerneck -11.7642 -4.08493 -5.29075
upperneck 24.9549 -7.76053 11.2582
head 10.5915 -2.86779 3.93563
rclavicle 7.42461e-014 3.4191e-014
rhumerus -48.8095 11.8816 -85.2073
rradius 44.3385
rwrist 7.82466
rhand -7.74146 -50.2056
rfingers 7.12502
rthumb -161.842 -619.378
lclavicle 7.42461e-014 3.4191e-014
lhumerus -49.5942 11.5775 73.1345
lradius 43.1093
lwrist -5.00999
lhand -1.77138 -33.7393
lfingers 7.12502
lthumb 23.8927 -5.20555
rfemur -3.56417 4.6391 17.7364
rtibia 31.5386
rfoot -25.0242 -23.0848
rtoes -9.15655
lfemur -0.823852 -17.0592 -28.522
ltibia 28.068
lfoot -35.2924 20.7225
ltoes -22.4522
1869
root 11.8967 15.2056 -38.0498 -5.93419 -6.09586 361.517
lowerback 1.28285 -2.51202 -3.64295
upperback -4.83276 -3.48429 0.756224
thorax -5.4679 -1.54981 3.02452
lowerneck -12.2525 -3.99878 -4.97699
upperneck 25.1124 -7.64301 11.002
head 10.7117 -2.79107 3.80087
rclavicle 3.49861e-014 -1.59028e-015
rhumerus -48.1411 11.4233 -84.7093
rradius 44.1567
rwrist 7.58203
rhand -7.49483 -49.5348
rfingers 7.12502
rthumb -161.605 -618.685
lclavicle 3.49861e-014 -1.59028e-015
lhumerus -48.7284 11.3123 73.3763
lradius 43.2765
lwrist -4.86185
lhand -2.6337 -34.0182
lfingers 7.12502
lthumb 23.0655 -5.37857
rfemur -3.6266 4.79027 17.8225
rtibia 31.4996
rfoot -24.7439 -23.0278
rtoes -9.66319
lfemur -0.773794 -16.8597 -28.4269
ltibia 27.9894
lfoot -35.3824 20.65
ltoes -21.5953
1870
root 11.9061 15.2084 -38.0512 -5.94399 -6.3899 361.433
lowerback 1.20458 -2.60282 -3.53965
upperback -4.83168 -3.58679 1.00523
thorax -5.40425 -1.60119 3.22621
lowerneck -12.1309 -3.80583 -4.77335
upperneck 25.3529 -7.34533 10.6457
head 10.7229 -2.67385 3.68294
rclavicle 1.2921e-014 -8.74653e-015
rhumerus -48.0125 11.2734 -84.1259
rradius 44.002
rwrist 7.30171
rhand -7.04929 -48.9042
rfingers 7.12502
rthumb -161.177 -618.013
lclavicle 1.2921e-014 -8.74653e-015
lhumerus -48.5256 11.3741 73.4355
lradius 43.5879
lwrist -4.48353
lhand -2.20666 -34.1302
lfingers 7.12502
lthumb 23.4752 -5.5424
rfemur -3.68228 4.88043 17.885
rtibia 31.4794
rfoot -24.6054 -22.8576
rtoes -9.51204
lfemur -0.736373 -16.626 -28.3357
ltibia 27.9447
lfoot -35.2774 20.7332
ltoes -21.1769
1871
root 11.9136 15.2052 -38.0503 -5.9612 -6.67606 361.519
lowerback 1.26048 -2.69764 -3.63775
upperback -4.90198 -3.71003 1.24882
thorax -5.4798 -1.64932 3.54602
lowerneck -12.0377 -3.59161 -4.72238
upperneck 25.5805 -7.01561 10.4247
head 10.7451 -2.54097 3.64478
rclavicle -2.5842e-015 -7.15625e-015
rhumerus -47.9702 11.2642 -83.5428
rradius 43.8415
rwrist 7.12068
rhand -6.64006 -49.9696
rfingers 7.12502
rthumb -160.783 -619.04
lclavicle -2.5842e-015 -7.15625e-015
lhumerus -48.5448 11.4118 73.5657
lradius 43.9337
lwrist -4.10438
lhand -2.23606 -34.2005
lfingers 7.12502
lthumb 23.447 -5.60912
rfemur -3.73354 4.94323 17.763
rtibia 31.4799
rfoot -24.3679 -22.7761
rtoes -10.1185
lfemur -0.684795 -16.4477 -28.4505
ltibia 27.8901
lfoot -35.2028 20.9242
ltoes -21.1699
1872
root 11.9212 15.2028 -38.0468 -5.94546 -6.99731 361.646
lowerback 1.01445 -2.74424 -3.64246
upperback -4.84512 -3.75698 1.37127
thorax -5.26681 -1.67657 3.66135
lowerneck -12.0445 -3.47839 -4.48448
upperneck 25.9176 -6.83093 10.0109
head 10.8291 -2.47295 3.48468
rclavicle 8.09054e-014 4.77083e-015
rhumerus -47.8421 11.149 -83.0941
rradius 43.7547
rwrist 6.96616
rhand -6.47417 -50.7711
rfingers 7.12502
rthumb -160.624 -619.826
lclavicle 8.09054e-014 4.77083e-015
lhumerus -48.4062 11.1001 73.7803
lradius 44.4253
lwrist -3.67461
lhand -2.83267 -34.1127
lfingers 7.12502
lthumb 22.8746 -5.44934
rfemur -3.84256 5.17988 17.6214
rtibia 31.5527
rfoot -24.2457 -22.7503
rtoes -10.8546
lfemur -0.660139 -16.3342 -28.617
ltibia 27.8485
lfoot -35.2027 21.0305
ltoes -20.4604
1873
root 11.9313 15.2029 -38.0448 -5.94128 -7.27271 361.683
lowerback 0.813263 -2.82026 -3.45953
upperback -4.80549 -3.83981 1.4659
thorax -5.10725 -1.72869 3.64735
lowerneck -11.813 -3.33274 -4.3138
upperneck 26.0355 -6.61646 9.78328
head 10.7922 -2.38937 3.40535
rclavicle 1.03368e-014 0
rhumerus -47.8587 11.0754 -82.7464
rradius 43.719
rwrist 6.90273
rhand -6.36604 -50.6862
rfingers 7.12502
rthumb -160.52 -619.73
lclavicle 1.03368e-014 0
lhumerus -48.3579 10.8674 73.8087
lradius 44.8366
lwrist -3.36151
lhand -2.88612 -34.2275
lfingers 7.12502
lthumb 22.8232 -5.55784
rfemur -3.92271 5.42378 17.581
rtibia 31.6344
rfoot -24.2684 -22.7369
rtoes -11.2726
lfemur -0.618807 -16.2653 -28.6984
ltibia 27.8035
lfoot -35.2086 21.0973
ltoes -19.8827
1874
root 11.9416 15.2049 -38.0439 -5.90944 -7.54995 361.652
lowerback 0.757805 -2.85913 -3.17293
upperback -4.81627 -3.87741 1.52058
thorax -5.09709 -1.75868 3.54282
lowerneck -11.6048 -3.17605 -4.2184
upperneck 26.0906 -6.44929 9.86862
head 10.7564 -2.29972 3.44589
rclavicle 2.14687e-014 -1.35174e-014
rhumerus -47.984 10.9313 -82.591
rradius 43.7617
rwrist 6.76486
rhand -6.44678 -51.3261
rfingers 7.12502
rthumb -160.597 -620.378
lclavicle 2.14687e-014 -1.35174e-014
lhumerus -48.2281 10.5731 73.7705
lradius 45.0916
lwrist -3.08088
lhand -2.57119 -33.9519
lfingers 7.12502
lthumb 23.1254 -5.31984
rfemur -4.02502 5.66342 17.6215
rtibia 31.6884
rfoot -24.2084 -22.8069
rtoes -11.4027
lfemur -0.611386 -16.1927 -28.6882
ltibia 27.7559
lfoot -35.2551 21.2845
ltoes -20.0345
1875
root 11.9498 15.2064 -38.0414 -5.87365 -7.87946 361.624
lowerback 0.648314 -2.87334 -2.86494
upperback -4.79162 -3.88128 1.5404
thorax -5.0255 -1.77553 3.38405
lowerneck -11.5164 -3.01898 -4.10325
upperneck 26.2552 -6.30626 9.99163
head 10.7887 -2.20887 3.4953
rclavicle 6.95746e-015 2.06736e-014
rhumerus -47.7716 10.2312 -81.9713
rradius 43.2777
rwrist 8.02646
rhand -4.94392 -50.9906
rfingers 7.12502
rthumb -159.153 -619.891
lclavicle 6.95746e-015 2.06736e-014
lhumerus -47.9782 10.2874 73.6737
lradius 45.2377
lwrist -2.76031
lhand -2.59602 -33.9083
lfingers 7.12502
lthumb 23.1016 -5.27323
rfemur -4.156 5.95647 17.6615
rtibia 31.737
rfoot -24.0658 -22.8754
rtoes -11.4611
lfemur -0.59082 -16.081 -28.6723
ltibia 27.6848
lfoot -35.3273 21.5378
ltoes -20.0976
